<svg id="Layer_1" data-name="Layer 1" xmlns="http://www.w3.org/2000/svg" viewBox="0 0 228.76 53.55"><defs><style>.cls-1{fill:#FFF;}</style></defs><title>Logo</title><path class="cls-1" d="M27.08,12.62c9.48,0,16.06,6.09,16.06,14.72S36.56,42.05,27.08,42.05H21V60H9.68V12.62Zm4,14.72a4.53,4.53,0,0,0-4.74-4.74H21V32h5.37A4.51,4.51,0,0,0,31.11,27.34Z" transform="translate(-9.68 -7.04)"/><path class="cls-1" d="M67.83,38.87V50H73.7V60H51.34V50h5.31V34.69H51.34v-10H65.42v2.12a14.64,14.64,0,0,1,7.36-2.12H82.4v10H72.07A4,4,0,0,0,67.83,38.87Z" transform="translate(-9.68 -7.04)"/><path class="cls-1" d="M90.88,50h10.19V34.69H91.59v-10h20.66V50h8.06V60H90.88Zm9.27-36.5a6.51,6.51,0,0,1,13,0,6.51,6.51,0,0,1-13,0Z" transform="translate(-9.68 -7.04)"/><path class="cls-1" d="M137.57,24.65l7.29,21.29,7.28-21.29h11.6L150.09,60H139.62L126,24.65Z" transform="translate(-9.68 -7.04)"/><path class="cls-1" d="M201.09,24.65V60h-9.26V57.83a16.65,16.65,0,0,1-8.92,2.75c-9.48,0-16.13-7.56-16.13-18.25s6.65-18.25,16.13-18.25a18.19,18.19,0,0,1,8.84,2.48V24.65ZM190.41,42.33c0-4.38-2.55-7.49-6.08-7.49s-6.09,3.11-6.09,7.49,2.55,7.5,6.09,7.5S190.41,46.72,190.41,42.33Z" transform="translate(-9.68 -7.04)"/><path class="cls-1" d="M207.74,10.5H225.5V45.8A4.12,4.12,0,0,0,229.67,50h8.77V60H229c-8.63,0-14.64-5.52-14.64-13.51v-26h-6.58Z" transform="translate(-9.68 -7.04)"/></svg>